<svg width="445" height="440" viewBox="0 0 445 440" fill="none" xmlns="http://www.w3.org/2000/svg">
<g clip-path="url(#clip0_24_74)">
<path d="M206.238 98.2578C216.179 89.8183 231.587 90.3508 240.334 100.214C247.111 107.854 244.991 116.286 245.118 125.498C245.132 126.24 244.92 126.01 245.452 126.309C246.226 126.263 248.372 126.05 248.847 126.602C252.328 130.644 249.065 140.513 245.982 144.185C244.937 145.428 243.34 145.12 242.062 144.637C241.682 146.097 241.351 147.514 240.797 148.92C239.336 152.448 237.675 154.578 235.328 157.632C235.312 161.105 234.655 168.973 237.118 171.502C240.207 174.673 265.239 178.656 272.4 183.513C274.386 184.86 276.033 186.773 277.35 188.748C279.186 191.502 280.523 194.448 281.501 197.597C283.792 204.97 284.78 212.784 285.988 220.384C288.161 234.058 289.945 247.78 291.96 261.477C292.481 265.014 293.376 274.231 294.625 277.068C295.954 280.09 298.771 283.104 300.764 285.762C305.481 292.127 310.299 298.417 315.218 304.631C319.568 310.142 324.58 319.008 332.432 318.832C337.798 318.711 346.578 322.756 351.341 325.44C352.634 326.278 353.846 335.103 353.164 336.893L352.682 337.354C351.668 337.282 352.002 336.936 350.901 336.681L351.332 337.476C350.858 337.34 350.367 337.12 349.939 337.207C352.404 338.71 362.914 344.511 361.013 348.606C359.949 350.899 355.94 347.778 354.664 346.767C354.371 347.656 354.585 349.095 354.675 350.076C355.134 355.078 355.099 359.395 352.466 363.858C363.224 364.755 412.799 369.305 418.716 376.025C419.18 376.552 419.375 377.082 419.269 377.792C419.102 378.907 417.939 379.822 417.039 380.37C411.351 383.837 400.512 385.137 393.784 386.233C369.753 390.15 345.365 391.395 321.089 392.843C258.005 396.212 194.793 396.561 131.674 393.888C116.873 393.071 102.085 392.02 87.3169 390.736C70.729 389.289 52.1322 387.427 36.0786 383.437C4.32228 375.545 50.3457 369.206 57.4253 368.221C63.6599 367.339 69.9055 366.533 76.1597 365.802C78.5969 365.536 91.6278 364.765 92.9419 364.193C90.1068 358.311 90.1464 354.392 91.6235 348.174C89.8401 348.748 88.3487 349.291 86.4536 349.225C83.7584 349.13 81.5414 347.361 83.8716 344.861C84.798 343.868 85.5201 343.376 86.6655 342.705C87.9097 339.715 89.0607 339.283 91.9302 337.864C91.7772 334.561 91.1949 324.46 96.3228 323.528C97.6911 323.28 98.8809 323.896 99.9673 324.707C106.35 319.055 110.346 317.892 118.768 318.771C123.277 313.833 127.095 308.232 131.166 302.94C134.276 298.897 148.571 280.942 149.931 277.084C151.278 273.262 151.601 266.151 152.194 261.903C153.659 251.267 155.269 240.652 157.024 230.059H157.025C158.607 219.701 161.753 198.809 166.775 190.487C168.933 186.912 172.315 183.858 176.001 181.876C181.863 178.724 190.386 177.065 196.952 175.301C200.059 174.466 204.833 173.814 207.154 171.51C210.024 168.661 209.072 160.979 208.964 157.31C206.98 154.634 205.648 152.713 204.092 149.705L203.879 150.068H203.878L204.092 149.705L204.011 149.175C203.538 148.003 203.011 145.804 202.457 145.06L202.137 145.058C200.749 145.034 199.123 144.79 198.219 143.625C195.675 140.344 193.952 134.757 194.12 130.62C194.246 127.507 195.491 124.135 199.116 126.489L199.344 126.383C200.019 115.893 196.878 106.204 206.238 98.2578ZM181.316 247.676C179.942 258.292 176.19 274.382 173.106 284.818C170.12 294.922 154.548 305.994 147.064 313.105C145.297 314.784 130.187 326.37 130.238 327.304C130.554 327.253 130.782 327.224 131.092 327.144C143.925 322.294 156.739 321.718 169.865 319.116C170.576 315.441 171.955 314.236 173.777 310.355C175.183 307.36 175.503 306.696 176.907 302.245C182.381 284.89 184.236 265.963 181.517 247.916C181.45 247.836 181.382 247.756 181.316 247.676ZM262.742 250.011C261.934 255.395 261.024 262.405 260.737 267.789C260.457 273.014 261.922 279.544 262.616 284.735C264.783 297.235 267.413 306.752 273.989 317.741C287.22 321.509 300.683 323.048 313.494 326.782L314.469 326.968L314.692 326.777C314.137 326.152 307.021 321.113 305.428 319.815C293.873 310.399 276.902 298.974 270.872 285.086C269.79 282.595 268.547 276.873 267.922 274.178C266.737 269.239 265.657 264.277 264.682 259.294C264.385 257.782 263.183 251.111 262.742 250.011ZM130.541 233.143C130.661 233.298 130.779 233.465 130.897 233.641C130.779 233.465 130.661 233.298 130.541 233.143ZM120.313 225.216C121.105 225.635 121.897 226.096 122.674 226.586C121.897 226.096 121.105 225.635 120.313 225.216ZM116.806 223.664H116.805H116.806ZM113.475 222.707H113.476L113.605 222.968C113.769 222.977 113.936 222.993 114.105 223.013C113.936 222.993 113.769 222.977 113.605 222.968L113.475 222.707ZM116.391 214.553C116.158 215.065 115.933 215.573 115.717 216.074C115.933 215.573 116.158 215.065 116.391 214.553ZM125.99 197.523H125.989H125.99ZM141.514 179.475H141.513H141.514ZM148.128 173.745H148.127H148.128ZM164.807 162.695C164.071 163.093 163.34 163.5 162.614 163.914C163.34 163.5 164.071 163.093 164.807 162.695ZM184.55 154.342H184.549H184.55ZM192.855 152.068C192.37 152.18 191.886 152.294 191.401 152.413C190.432 152.651 189.46 152.905 188.476 153.179C189.952 152.768 191.399 152.402 192.854 152.068H192.855ZM202.028 150.4H202.027H202.028Z" fill="#0C4A75"/>
<path d="M352.467 363.858C363.224 364.755 412.799 369.306 418.716 376.025C419.18 376.553 419.375 377.082 419.269 377.792C419.102 378.907 417.938 379.822 417.038 380.37C411.35 383.837 400.512 385.137 393.784 386.234C369.752 390.15 345.365 391.395 321.089 392.843C258.005 396.212 194.793 396.561 131.674 393.888C116.873 393.071 102.085 392.02 87.3174 390.736C70.7294 389.288 52.1328 387.428 36.0791 383.438C4.32142 375.545 50.3476 369.206 57.4259 368.221C63.6607 367.339 69.9059 366.533 76.1602 365.801C78.5977 365.535 91.631 364.765 92.9425 364.193C95.1549 367.942 97.8258 370.855 101.598 373.125C122.594 385.761 171.525 380.908 195.946 378.115C200.94 377.534 205.917 376.82 210.872 375.974C211.985 375.788 217.872 374.642 218.51 374.664C219.622 374.701 229.156 376.183 229.858 376.502C230.199 377.162 230.201 377.292 230.795 377.755C233.229 378.4 238.908 378.962 241.618 379.236C267.829 381.875 295.173 383.641 321.308 379.617C330.425 378.213 340.968 374.487 348.142 368.907C349.648 367.735 351.387 365.407 352.467 363.858Z" fill="#E6E5E3"/>
<path d="M249.744 177.126C256.589 178.956 270.885 181.907 274.792 187.669C276.99 189.617 279.369 194.869 280.14 197.646C283.241 208.806 284.469 220.472 286.373 231.872C286.624 233.371 286.855 234.784 286.971 236.303C286.666 236.963 286.856 236.657 286.02 237.104C278.795 239.923 271.288 240.516 263.613 240.386C265.036 228.913 264.842 216.638 265.275 205.089C265.309 204.175 265.511 203.024 264.872 202.386L264.357 202.399C264.243 202.539 264.128 202.678 264.014 202.818C263.627 207.277 263.679 213.442 263.383 217.752C263.605 223.329 263.019 229.672 262.572 235.673C261.82 245.779 260.884 258.16 258.786 268.112C258.135 271.196 250.713 279.268 248.003 281.449C246.623 282.959 243.847 285.214 242.238 286.571C232.519 294.764 222.076 300.347 210.279 305.065C207.305 306.254 199.666 308.496 197.504 309.743C204.04 308.706 209.536 306.576 215.554 304.096C231.37 297.576 243.02 288.794 254.586 276.415C256.339 274.296 257.944 272.405 259.371 270.054C259.89 275.317 260.59 280.56 261.468 285.776C259.922 288.473 258.728 290.594 256.492 292.85C253.924 295.555 249.435 299.127 247.471 301.425C250.862 299.804 253.641 297.159 256.351 294.615C258.455 292.189 260.053 290.366 261.855 287.701C263.134 295.967 266.569 307.105 270.595 314.497C269.145 314.978 267.365 315.515 265.962 316.051C264.359 316.538 262.752 317.007 261.148 317.489C233.148 325.897 203.54 323.146 175.455 316.303L172.764 315.345C176.181 309.473 178.676 301.958 180.242 295.371C180.913 292.552 181.352 289.677 182.088 286.854L182.267 286.723L182.283 286.32L183.063 286.524C182.959 286.347 182.608 285.758 182.61 285.578C182.641 281.756 183.43 277.861 183.746 274.03C184.624 275.841 185.402 277.636 186.615 279.24C190.246 279.383 194.233 276.93 197.215 275.031C214.024 264.324 227.068 247.984 237.993 231.67C239.955 228.74 241.896 225.712 243.669 222.68C243.971 222.158 243.843 222.027 243.691 221.669L243.27 221.574C242.025 222.151 241.103 224.494 240.341 225.675C238.243 228.916 236.125 232.144 233.987 235.36C226.151 246.99 215.638 259.009 204.727 268.119C201.601 270.729 191.779 278.042 187.408 277.972C186.891 277.964 186.56 277.367 186.268 276.968C183.636 272.449 184.259 270.192 184.248 265.222C184.22 262.513 184.141 259.803 184.013 257.097C182.525 242.612 180.519 228.192 179.626 213.649C179.503 211.628 179.518 202.98 178.749 202.1L178.261 202.246C177.627 203.056 177.831 202.844 177.771 204.083C177.967 206.627 177.986 209.184 178.122 211.733C178.627 221.18 179.779 230.552 180.706 239.962C178.414 240.098 174.873 240.377 172.685 240.006C167.754 240.065 161.789 238.889 157.214 237.094C159.03 226.172 162.75 199.73 167.842 191.356C173.825 181.516 184.543 179.785 195.007 177.22C197.894 181.51 200.577 184.469 205.067 187.218C212.769 191.892 222.038 193.337 230.821 191.233C239.115 189.267 245.315 184.204 249.744 177.126Z" fill="#FEFDFD"/>
<path d="M248.003 281.449C248.309 280.459 248.899 279.135 249.334 278.188C257.091 261.28 260.04 242.645 262.339 224.358C262.555 222.638 262.649 219.242 263.383 217.752C263.604 223.329 263.019 229.672 262.572 235.674C261.82 245.779 260.884 258.16 258.786 268.112C258.135 271.196 250.713 279.268 248.003 281.449Z" fill="#E6E5E3"/>
<path d="M256.351 294.615C258.455 292.189 260.053 290.366 261.855 287.701C263.134 295.967 266.569 307.105 270.595 314.497C269.144 314.978 267.365 315.515 265.962 316.051C265.19 314.553 261.904 309.462 260.93 307.941C261.177 307.842 261.736 307.53 262 307.394L261.903 307.262L260.939 307.434C259.538 304.158 258.351 300.68 257.314 297.275C257.027 296.331 256.839 295.489 256.351 294.615Z" fill="#E6E5E3"/>
<path d="M182.088 286.854C183.02 288.735 183.94 290.254 185.252 291.912L185.2 292.081C182.531 300.889 182.425 308.725 175.455 316.303L172.764 315.345C176.181 309.473 178.676 301.958 180.242 295.371C180.913 292.552 181.352 289.677 182.088 286.854Z" fill="#E6E5E3"/>
<path d="M286.02 237.104C284.839 234.314 284.124 228.156 283.543 224.957C281.006 210.992 280.013 197.696 272.095 185.492C272.764 186.121 273.999 187.451 274.792 187.669C276.99 189.617 279.369 194.869 280.14 197.646C283.241 208.806 284.469 220.472 286.373 231.872C286.624 233.371 286.855 234.784 286.971 236.303C286.665 236.963 286.856 236.657 286.02 237.104Z" fill="#E6E5E3"/>
<path d="M259.371 270.055C259.89 275.317 260.59 280.56 261.468 285.776C259.922 288.473 258.728 290.594 256.492 292.85C256.364 290.595 255.23 277.759 254.586 276.415C256.339 274.296 257.944 272.405 259.371 270.055Z" fill="#C2DEEB"/>
<path d="M260.939 307.434L261.903 307.262L262 307.394C261.736 307.53 261.176 307.842 260.93 307.941C258.33 309.131 253.676 310.374 250.831 311.1C234.918 315.158 219.424 316.666 203.044 315.259C199.963 314.995 195.237 314.81 192.292 314.071C192.74 313.519 202.613 314.168 203.883 314.266C223.85 315.82 241.634 312.532 260.939 307.434Z" fill="#0C4A75"/>
<path d="M177.771 204.083C177.967 206.627 177.986 209.184 178.122 211.733C178.627 221.18 179.778 230.552 180.706 239.962C178.414 240.098 174.873 240.377 172.685 240.006C173.83 239.869 176.038 239.931 177.273 239.933C177.286 236.259 177.653 232.592 177.643 228.917C177.794 224.699 177.191 220.068 177.443 215.893C177.672 212.116 177.446 207.754 177.771 204.083Z" fill="#E6E5E3"/>
<path d="M183.746 274.03C184.624 275.841 185.402 277.636 186.615 279.24C185.872 280.169 186.05 289.048 186.041 290.961C185.111 289.853 183.878 287.808 183.063 286.524C182.959 286.347 182.608 285.758 182.61 285.578C182.641 281.756 183.43 277.861 183.746 274.03Z" fill="#E6E5E3"/>
<path d="M184.012 257.097C185.676 260.263 186.722 273.337 186.268 276.968C183.636 272.449 184.259 270.192 184.248 265.222C184.22 262.513 184.141 259.803 184.012 257.097Z" fill="#E6E5E3"/>
<path d="M182.088 286.854L182.267 286.723L182.283 286.32L183.063 286.524C183.878 287.808 185.111 289.853 186.041 290.961C188.181 294.125 190.454 295.342 192.579 297.788C189.359 296.361 187.545 294.557 185.252 291.912C183.94 290.254 183.019 288.735 182.088 286.854Z" fill="#0C4A75"/>
<path d="M121.665 336.025C132.619 335.863 143.057 337.341 153.895 338.775L179.801 342.103L197.33 344.309C200.07 344.667 204.641 345.139 207.133 345.832C207.834 346.337 208.027 347.709 208.092 348.503C208.619 354.881 207.425 361.699 204.755 367.512C194.805 369.209 182.12 370.222 171.623 370.417C152.473 370.773 125.327 373.33 109.626 360.322C108.528 359.412 106.123 355.815 105.723 355.636L105.4 355.912C105.276 356.857 105.9 357.64 106.443 358.422C111.458 365.637 120.575 368.485 128.795 370.113C149.105 373.754 183.478 371.506 204.212 368.765C202.99 371.254 201.818 373.53 200.272 375.838C197.152 376.569 187.661 377.442 183.937 377.772C159.611 379.862 133.844 382.167 110.111 375.18C97.8387 371.567 88.7497 361.182 93.2905 348.173C96.7145 347.327 100.356 346.96 103.639 345.67C110.127 343.119 116.301 340.498 121.665 336.025Z" fill="#C2DEEB"/>
<path d="M321.04 336.287C321.203 336.255 321.741 336.239 321.855 336.323C324.088 337.977 326.14 339.8 328.654 341.039C333.271 343.314 338.19 345.761 343.249 346.817C343.727 346.937 346.65 346.018 346.83 346.083C349.546 347.071 350.162 348.129 353.172 348.336C353.422 350.832 353.62 353.297 353.401 355.806C352.97 360.729 350.639 364.881 346.791 368.015C325.992 384.959 271.743 380.57 246.085 378.196C245.351 376.508 244.49 374.933 243.63 373.308C248.559 373.941 256.618 374.284 261.705 374.367C277.829 374.632 299.032 375.187 314.627 371.61C322.173 370.345 331.927 366.308 337.743 361.293C338.604 360.55 340.463 358.85 340.547 357.765L340.238 357.482C339.273 357.856 337.53 359.977 336.515 360.771C320.193 373.535 293.417 373.464 273.919 373.383C263.651 373.377 253.387 373.013 243.146 372.291C241.762 368.58 241.158 365.138 242.568 361.331C245.279 360.335 248.866 359.302 251.676 358.389C256.133 356.939 260.563 355.409 264.964 353.802C284.387 346.789 300.485 340.108 321.04 336.287Z" fill="#C2DEEB"/>
<path d="M221.552 93.5426C226 93.155 231.946 95.163 235.569 97.6371C239.856 100.545 242.782 105.036 243.686 110.098C244.286 113.396 243.893 116.762 243.891 120.096C243.889 123.438 244.227 126.522 243.396 129.799C241.935 135.551 241.789 141.889 239.881 147.53C239.088 149.834 237.951 152.008 236.51 153.981C233.073 158.763 229.655 162.056 223.73 163.067C219.816 163.159 216.684 162.198 213.651 159.788C205.821 153.772 204.195 146.715 202.497 137.662C201.16 130.531 200.351 128.127 200.688 120.736C201.011 113.647 199.588 107.745 204.728 101.53C209.096 96.2475 215.016 94.2417 221.552 93.5426Z" fill="#FEFDFD"/>
<path d="M211.551 105.755C216.293 105.224 218.232 107.173 222.305 107.359C225.971 107.526 230.445 104.346 234.664 106.206C237.673 107.532 239.486 110.527 240.672 113.424C242.297 117.394 243.049 120.58 241.365 124.619C241.492 118.205 240.031 109.794 233.193 107.122C229.001 106.309 226.061 108.76 222.37 108.7C217.849 108.467 212.91 104.939 208.644 108.577C203.813 112.696 203.716 118.874 203.158 124.484C203.028 124.111 202.904 123.736 202.786 123.358C201.362 118.785 203.464 112.66 206.362 108.978C207.824 107.12 209.371 106.404 211.551 105.755Z" fill="#0C4A75"/>
<path d="M211.35 121.846C213.839 121.696 216.399 122.036 217.629 124.489C217.624 125.221 217.759 124.932 217.275 125.412C215.282 126.015 214.466 124.971 212.363 124.718C210.109 124.627 207.54 125.495 206.45 125.193L206.409 124.843C207.531 123.243 209.54 122.419 211.35 121.846Z" fill="#0C4A75"/>
<path d="M231.207 121.874C234.566 121.725 236.778 122.979 238.357 125.869C236.766 125.266 235.79 124.897 234.087 124.709C232.063 124.667 227.947 126.229 226.886 124.853C226.972 122.643 229.485 122.15 231.207 121.874Z" fill="#0C4A75"/>
<path d="M228.675 148.233C229.186 148.932 229.07 148.555 229.056 149.399C228.5 150.263 227.14 150.565 226.18 150.753C222.924 151.388 219.815 151.279 216.844 149.731C216.478 149.328 216.527 149.364 216.244 148.892L216.371 148.562C218.115 148.099 222.708 152.324 228.675 148.233Z" fill="#0C4A75"/>
<path d="M206.691 131.934C208.484 131.891 210.166 133.196 212.119 133.458C214.203 133.737 215.761 131.453 217.157 132.33L217.268 132.96C214.31 135.724 208.59 135.462 206.691 131.934Z" fill="#0C4A75"/>
<path d="M227.321 131.807C228.994 131.981 230.492 133.568 232.683 133.29C233.933 133.131 236.965 131.543 237.738 132.202L237.399 132.633C235.67 133.756 234.357 134.587 232.195 134.668C230.046 134.749 227.424 134.387 227.321 131.807Z" fill="#0C4A75"/>
<path d="M220.575 139.903L221.137 140.084C221.798 140.816 221.109 140.97 221.439 142.484C222.316 143.175 223.242 143.206 224.105 142.491C224.508 141.55 224.04 141.156 224.158 140.218C224.941 140.213 224.547 140.162 225.37 140.699C225.426 141.124 225.575 142.054 225.439 142.427C224.687 144.49 221.618 144.948 220.463 142.983C219.874 141.979 220.303 140.926 220.575 139.903Z" fill="#0C4A75"/>
<path d="M219.877 152.782C221.03 152.787 223.78 152.86 224.98 153.02C225.234 153.054 225.232 153.323 225.331 153.639C223.512 154.623 220.928 154.91 219.877 152.782Z" fill="#0C4A75"/>
<path d="M263.408 246.536L263.443 246.33C263.722 244.595 263.212 244.342 263.989 243.219L264.239 243.187C264.68 244.333 264.615 245.58 265.275 246.338L265.466 246.405C265.684 246.909 265.726 247.174 266.098 247.544C273.537 247.345 281.277 246.953 288.128 243.758C289.599 254.427 291.43 265.633 292.784 276.205C291.097 275.753 285.576 274.361 284.125 274.921L283.992 275.366C284.67 276.167 288.428 276.336 289.643 276.644C290.893 276.962 291.969 277.296 293.194 277.727C299.825 286.968 306.662 296.065 313.698 305.009C315.312 307.071 316.992 309.3 318.598 311.238C321.522 314.766 324.719 319.364 329.601 320.059C331.784 320.37 333.971 320.231 336.156 320.459C339.987 321.317 345.001 323.778 348.686 325.399C346.164 326.387 344.968 326.458 342.233 326.664C342.266 329.062 341.978 329.841 341.283 332.15C338.172 329.867 331.517 325.515 328.229 324.004C331.258 327.02 335.524 329.566 338.952 332.015C342.782 334.75 360.17 343.267 359.995 347.664C359.137 348.176 357.863 347.312 357.191 346.752C355.099 345.005 341.03 335.635 339.461 335.873C339.666 336.832 340.726 337.672 341.532 338.16C345.846 340.774 350.611 342.998 354.449 346.305C354.166 346.406 353.163 346.811 352.939 346.742C344.02 343.989 336.086 338.383 329.406 332.158C331.073 334.732 333.445 337.32 335.863 339.225C338.729 341.483 342.384 342.835 345.384 344.849L345.373 345.111C342.611 346.169 338.285 343.743 335.686 342.605C332.439 341.533 329.353 340.03 326.515 338.136C320.17 333.812 319.576 328.992 314.566 324.966C302.273 315.108 280.978 301.213 273.447 287.499C269.965 281.158 264.854 254.366 263.408 246.536Z" fill="#FEFDFD"/>
<path d="M263.408 246.536L263.443 246.33C263.722 244.595 263.212 244.342 263.989 243.219L264.239 243.187C264.68 244.333 264.615 245.58 265.275 246.338L265.466 246.405C265.684 246.909 265.726 247.174 266.098 247.544C265.561 248.895 270.729 271.832 271.593 274.976C272.297 277.537 273.133 280.093 274.205 282.528C280.302 296.366 297.893 308.799 309.455 318.186C311.844 320.127 314.454 322.012 316.682 324.128C320.011 327.292 321.557 331.825 325.119 334.949C327.371 336.924 334.743 340.901 335.686 342.605C332.439 341.533 329.353 340.03 326.515 338.136C320.17 333.812 319.576 328.992 314.566 324.966C302.273 315.108 280.978 301.213 273.447 287.499C269.965 281.158 264.854 254.366 263.408 246.536Z" fill="#E6E5E3"/>
<path d="M156.241 244.01C162.632 246.51 169.41 247.236 176.236 247.293L180.142 247.261C178.153 258.898 174.948 273.814 171.313 285.113C168.715 293.192 157.585 301.485 151.612 307.324C144.228 314.205 135.602 320.014 128.392 327.048C122.435 334.473 117.42 338.475 108.467 342.114C103.437 344.158 100.197 345.624 94.6198 346.299C92.0654 346.609 89.0087 347.756 86.2426 348.044C86.1505 347.964 85.6068 347.696 85.4769 347.628C82.8486 346.42 86.6463 344.271 87.7236 343.678C88.0383 343.042 88.7336 341.591 89.209 341.142C92.0906 338.006 98.3771 337.339 101.666 335.279C106.66 332.15 112.472 328.249 115.811 323.475C114.018 324.905 112.21 326.664 110.336 327.983C108.246 329.455 105.886 330.797 103.701 332.165C103.247 332.514 103.209 332.529 102.687 332.773L102.35 332.871C101.17 332.351 98.3684 338.191 96.7927 331.567C96.89 331.244 97.1143 330.481 97.2846 330.211C103.733 319.975 114.293 317.293 124.988 322.335C123.136 320.526 122.715 320.094 120.325 319.048C123.637 315.593 129.445 307.496 132.655 303.31C136.827 297.955 140.934 292.55 144.975 287.096C146.917 284.448 149.601 280.988 150.996 278.137C153.11 277.262 154.816 276.59 157.102 276.249L157.529 276.187C159.165 275.941 161.59 277.091 162.557 276.431L162.595 276.013C160.516 273.803 154.045 275.582 151.552 276.548C153.22 265.71 154.561 254.852 156.241 244.01Z" fill="#FEFDFD"/>
<path d="M176.236 247.293L180.142 247.261C178.153 258.898 174.948 273.814 171.313 285.113C168.715 293.192 157.585 301.485 151.612 307.323C144.228 314.205 135.602 320.013 128.392 327.048L127.598 326.676C127.539 325.93 128.025 325.128 128.565 324.627C137.14 316.685 145.28 308.327 153.917 300.442C157.784 296.953 161.311 293.454 164.653 289.497C169.975 283.199 170.664 275.695 172.352 267.907C173.809 261.181 175.31 254.157 176.236 247.293Z" fill="#E6E5E3"/>
<path d="M85.4771 347.628C87.0802 344.778 87.4822 345.72 89.937 344.604C90.0418 344.556 89.5412 343.106 91.8192 341.884C94.2741 340.567 96.5803 340.194 99.0626 338.904C101.517 337.628 104.064 335.248 106.649 334.564C107.125 334.442 107.605 334.333 108.087 334.238C105.346 335.876 102.331 338.242 100.03 339.598C96.0332 341.953 93.7791 340.847 89.997 344.924C93.4123 343.926 97.3643 342.994 100.666 341.909C102.136 341.426 107.077 336.422 109.796 337.232C109.391 338.005 106.581 339.158 105.638 339.766C104.037 340.799 102.489 342.544 100.714 343.062C97.9853 343.859 95.1832 344.438 92.4593 345.271C90.3821 345.946 87.1593 345.785 86.2428 348.044C86.1506 347.964 85.607 347.696 85.4771 347.628Z" fill="#0C4A75"/>
<path d="M101.804 325.268C103.106 327.613 103.515 329.527 103.701 332.165C103.247 332.514 103.209 332.529 102.687 332.773C102.371 330.963 102.097 327.384 101.804 325.268Z" fill="#0C4A75"/>
<path d="M273.886 319.138C287.206 323.133 302.386 325.022 316.27 328.875C317.698 330.918 319.159 333.134 320.782 335.011C312.264 336.218 305.033 338.461 296.878 340.938C292.256 336.005 284.029 331.232 277.024 330.809C273.104 330.573 269.841 332.284 266.367 333.879C263.055 335.399 259.386 336.82 255.7 337.304C248.713 338.221 240.289 333.935 234.451 339.563C231.321 342.536 229.086 344.851 224.135 344.633C218.862 344.402 212.877 343.175 207.58 342.845C207.153 342.818 206.106 343.564 205.721 343.835C203.42 343.793 200.834 343.211 198.508 343.027C181.723 341.695 181.462 328.038 163.032 336.012C161.821 336.739 160.654 337.257 159.374 337.853C147.208 336.596 136.007 334.49 123.506 334.518C125.573 332.425 127.181 330.413 129.871 329.224C138.399 325.356 150.813 323.674 160.043 322.18C163.353 321.644 167.376 321.24 170.566 320.451C179.179 324.627 189.219 326.473 198.485 329.674C203.07 331.296 207.534 333.234 211.844 335.474C213.706 336.457 215.538 337.677 217.325 338.576L217.515 338.67C212.356 332.878 199.786 328.665 192.298 326.54L192.252 326.057C193.615 326.59 201.189 327.556 203.174 327.832C225.48 330.925 248.328 329.798 269.344 321.246C270.754 320.672 272.565 319.827 273.886 319.138Z" fill="#C2DEEB"/>
<path d="M123.506 334.518C125.573 332.425 127.181 330.413 129.871 329.224C130.853 329.715 131.871 329.608 132.931 329.782C142.468 331.343 153.924 332.906 163.032 336.012C161.821 336.739 160.654 337.257 159.374 337.853C147.208 336.596 136.007 334.491 123.506 334.518Z" fill="#93C9E1"/>
<path d="M274.734 332.199C281.982 331.555 290.092 336.734 295.094 341.464C293.794 341.941 292.396 342.384 291.076 342.817C276.435 347.622 262.279 353.816 247.503 358.226C244.811 359.03 242.144 359.884 239.478 360.763L224.617 365.163C226.999 358.437 227.556 353.047 226.054 346.072C233.875 344.438 233.626 340.395 239.124 338.433C243.254 336.959 250.483 339.381 256.242 338.567C263.676 337.516 268.783 333.353 274.734 332.199Z" fill="#FEFDFD"/>
<path d="M210.349 158.655C211.198 159.163 212.694 160.722 213.607 161.391C216.047 163.18 219.31 164.38 222.339 164.405C227.306 164.445 230.594 162.178 233.941 158.933C233.97 162.392 233.651 168.153 235.343 171.081C236.984 173.922 240.348 174.597 243.275 175.374C240.782 178.327 239.635 179.511 236.375 181.52C230.212 184.676 224.769 185.855 217.791 184.728C211.566 183.723 205.097 180.505 201.397 175.308C203.773 174.645 206.301 174.089 208.083 172.286C211.006 169.329 210.375 162.63 210.349 158.655Z" fill="url(#paint0_linear_24_74)"/>
<path d="M211.264 167.453C211.119 167.459 214.817 169.993 215.135 170.213C217.317 171.725 226.803 174.79 225.873 169.557C225.566 167.829 228.375 167.607 229.839 167.343C230.472 167.55 230.876 168.17 231.273 168.706L231.559 168.629C232.036 168.228 232.657 167.834 233.183 167.476C232.87 168.68 230.38 170.173 229.356 170.936C224.914 174.249 214.149 172.285 211.264 167.453Z" fill="#C2DEEB"/>
<path d="M208.383 344.38C212.737 344.985 220.575 346.041 224.755 346.129C224.801 346.359 224.845 346.59 224.888 346.821C226.532 355.858 224.522 365.171 219.291 372.758L215.922 373.45C211.393 374.451 206.316 375.076 201.679 375.82C207.468 368.166 211.866 353.689 208.383 344.38Z" fill="#C2DEEB"/>
<path d="M171.25 318.022C171.513 317.201 171.404 317.089 171.948 316.578C173.985 316.818 176.233 318.037 178.276 318.495C198.782 323.094 220.362 325.541 241.322 322.943C251.698 321.657 261.258 318.803 271.197 315.777L272.641 318.239C249.791 328.708 226.2 329.387 201.609 326.413C193.231 325.4 183.265 323.81 175.28 320.969C173.281 320.275 171.65 320.192 171.25 318.022Z" fill="#E6E5E3"/>
<path d="M171.25 318.022C173.326 318.321 175.567 318.322 175.28 320.969C173.281 320.275 171.65 320.192 171.25 318.022Z" fill="#C2DEEB"/>
<path d="M244.25 175.596L248.617 176.835C247.714 178.587 246.906 179.523 245.678 181.056C235.828 191.552 221.177 193.991 208.143 187.688C202.65 185.032 199.409 181.712 195.886 176.888L199.855 175.784C200.03 175.809 200.205 175.834 200.379 175.859C202.016 177.963 204.078 180.077 206.333 181.542C215.874 187.744 228.965 188.232 238.438 181.597C240.971 179.823 242.525 178.024 244.25 175.596Z" fill="#FEFDFD"/>
<path d="M240.021 362.009L240.517 362.008C240.656 362.388 240.691 362.321 240.632 362.671C239.558 369.004 241.648 372.554 244.54 377.955C241.73 377.653 238.922 377.325 236.118 376.973C234.591 376.795 232.941 376.511 231.41 376.278C229.75 372.114 229.462 369.615 229.477 365.197C233.004 364.176 236.519 363.113 240.021 362.009Z" fill="#C2DEEB"/>
<path d="M157.064 238.054C162.591 240.841 170.665 241.247 176.874 241.394L180.855 241.292C180.82 242.823 180.804 244.222 180.641 245.747C179.458 245.838 177.914 245.995 176.763 246.005C170.166 246.157 162.427 245.487 156.363 242.738C156.568 241.19 156.829 239.602 157.064 238.054Z" fill="#FEFDFD"/>
<path d="M176.874 241.394L180.855 241.292C180.821 242.823 180.805 244.222 180.641 245.747C179.458 245.838 177.914 245.995 176.763 246.005C176.848 244.533 176.846 242.883 176.874 241.394Z" fill="#C2DEEB"/>
<path d="M263.474 241.712C271.432 241.482 279.938 241.235 287.268 237.807L287.804 242.537C280.655 245.887 273.215 246.138 265.466 246.405L265.275 246.338C264.615 245.58 264.68 244.333 264.239 243.187L263.989 243.219C263.212 244.342 263.722 244.595 263.443 246.33L263.409 246.536C263.05 245.352 263.355 243.043 263.474 241.712Z" fill="#FEFDFD"/>
<path d="M170.478 334.983C177.276 334.192 183.013 338.475 188.709 341.822L180.833 340.832C174.475 339.875 168.102 339.01 161.718 338.24C164.35 336.825 167.535 335.566 170.478 334.983Z" fill="#FEFDFD"/>
<path d="M246.476 127.151C252.261 127.544 247.516 140.796 244.916 143.379C243.953 143.775 243.244 143.818 242.523 143.066C242.462 140.733 244.095 131.706 244.541 128.936C244.698 127.96 245.643 127.555 246.476 127.151Z" fill="#FEFDFD"/>
<path d="M245.771 130.672L246.426 131.028C246.759 131.752 246.116 135.187 246.017 136.323L245.6 136.213C244.736 134.672 245.35 132.337 245.771 130.672Z" fill="#0C4A75"/>
<path d="M246.647 128.45C247.59 128.507 247.515 128.414 248.058 129.044C248.411 130.342 248.168 131.508 247.897 132.827C246.749 131.959 247.533 130.662 246.935 129.381C246.712 128.904 246.744 128.967 246.647 128.45Z" fill="#0C4A75"/>
<path d="M196.805 126.885C198.102 126.924 199.47 127.522 199.658 128.854C200.297 133.377 201.817 138.799 202.243 143.224C201.851 143.791 201.723 143.673 200.906 143.956C197.584 142.996 195.863 135.6 195.425 132.614C195.096 130.367 195.259 128.602 196.805 126.885Z" fill="#FEFDFD"/>
<path d="M197.554 130L198.02 130.017C198.537 130.733 198.952 131.357 199.424 132.103C199.433 133.312 199.582 135.099 198.862 136.021C198.255 135.587 198.386 133.487 198.378 132.687C197.411 132.116 197.011 132.984 196.675 131.654C196.856 130.766 196.946 130.722 197.554 130Z" fill="url(#paint1_linear_24_74)"/>
<path d="M196.675 131.654C196.702 130.388 195.954 129.295 196.406 127.931L196.72 127.853C196.987 127.994 197.083 128.151 197.308 128.385C197.318 128.968 197.252 129.481 197.554 130C196.947 130.722 196.856 130.766 196.675 131.654Z" fill="#0C4A75"/>
<path d="M227.547 365.685C227.816 365.709 227.656 365.672 227.998 365.886C227.986 369.175 228.389 371.664 229.351 374.77C227.658 374.552 225.877 374.246 224.182 373.983L220.813 373.296C222.096 371.02 223.061 368.938 224.131 366.567C225.238 366.34 226.447 365.982 227.547 365.685Z" fill="#FEFDFD"/>
<path d="M96.2213 324.866C97.3746 324.713 98.3407 324.556 98.9782 325.675C95.6155 329.664 94.6181 330.674 96.8236 335.811L96.5672 336.27C95.516 336.788 94.493 337.161 93.4022 337.583C92.5744 333.748 92.8355 327.419 96.2213 324.866Z" fill="#FEFDFD"/>
<path d="M347.782 331.707L347.77 331.308C347.733 330.21 347.264 328.182 347.783 327.222C347.882 327.038 349.247 326.46 349.557 326.282C349.989 326.342 350.42 326.359 350.676 326.86C351.835 329.128 352.068 332.321 352.236 334.838C352.285 335.587 350.916 335.917 350.352 336.074C349.087 334.666 348.432 333.448 347.782 331.707Z" fill="#FEFDFD"/>
<path d="M343.499 328.235C344.477 328.061 345.588 327.741 346.562 327.487C346.495 328.852 346.321 330.816 346.781 332.07C347.289 333.763 347.94 334.803 348.52 336.348C346.559 335.059 344.513 333.899 342.397 332.877L343.499 328.235Z" fill="#FEFDFD"/>
<path d="M192.298 326.54C191.173 326.268 190.342 326.046 189.234 325.696L189.019 325.437L188.942 325.577L188.734 325.468L188.992 325.394L189.007 325.556L189.092 325.586L189.22 325.417C190.236 325.606 191.247 325.819 192.252 326.057L192.298 326.54Z" fill="#4B86A8"/>
</g>
<defs>
<linearGradient id="paint0_linear_24_74" x1="222.114" y1="159.587" x2="222.207" y2="184.563" gradientUnits="userSpaceOnUse">
<stop stop-color="#B6D5E3"/>
<stop offset="1" stop-color="white"/>
</linearGradient>
<linearGradient id="paint1_linear_24_74" x1="199.694" y1="134.806" x2="196.502" y2="131.124" gradientUnits="userSpaceOnUse">
<stop stop-color="#2F566E"/>
<stop offset="1" stop-color="#05477D"/>
</linearGradient>
<clipPath id="clip0_24_74">
<rect width="445" height="440" fill="white"/>
</clipPath>
</defs>
</svg>
